<svg xmlns="http://www.w3.org/2000/svg" width="426" height="426" viewBox="0 0 426 426.00001"><defs><clipPath id="a"><circle r="161.077" cy="-521.219" cx="368.336" fill="#fff" stroke="#2c2d30" stroke-width="17.045"/></clipPath></defs><g transform="matrix(1.25 0 0 -1.25 -247.42 864.52)"><circle cx="368.336" cy="-521.219" r="161.077" transform="scale(1 -1)" fill="#fff" stroke="#2c2d30" stroke-width="17.045"/><ellipse cx="368.336" cy="-376.419" rx="83.2" ry="53.2" transform="scale(1 -1)" clip-path="url(#a)" fill="#a50b5e"/><g fill-rule="evenodd"><path d="M452.044 459.716c29.392.022 8.862 0 44.345 0l-81.022 124.19-82.2-125.374h46.125l36.666 59.138c7.52-12.076 14.815-23.783 22.472-36.075h13.01l-36.666 57.956-42.58-68.6H356.23l58.546 94.03 57.955-93.437c-34.452-.013-17.106.024-28.046 0z" fill="#2c2d30"/><path d="M284.604 582.722h-44.32l81.02-124.19 82.2 125.373h-46.126l-36.666-59.14c-7.522 12.078-14.816 23.785-22.473 36.076h-13.01l36.665-57.954 42.58 68.6h15.967l-58.547-94.03-57.955 93.438c33.99-.018 28.04 0 28.04 0z" fill="#a50b5e"/></g><circle transform="scale(1 -1)" r="161.077" cy="-521.219" cx="368.336" fill="none" stroke="#2c2d30" stroke-width="17.045"/></g></svg>